<?xml version="1.0" encoding="UTF-8" standalone="no"?>
<!-- Generator: Adobe Illustrator 16.0.0, SVG Export Plug-In . SVG Version: 6.00 Build 0)  -->

<svg
   xmlns:dc="http://purl.org/dc/elements/1.1/"
   xmlns:cc="http://creativecommons.org/ns#"
   xmlns:rdf="http://www.w3.org/1999/02/22-rdf-syntax-ns#"
   xmlns:svg="http://www.w3.org/2000/svg"
   xmlns="http://www.w3.org/2000/svg"
   xmlns:sodipodi="http://sodipodi.sourceforge.net/DTD/sodipodi-0.dtd"
   xmlns:inkscape="http://www.inkscape.org/namespaces/inkscape"
   version="1.1"
   id="レイヤー_1"
   x="0px"
   y="0px"
   width="128px"
   height="128px"
   viewBox="0 0 128 128"
   enable-background="new 0 0 128 128"
   xml:space="preserve"
   inkscape:version="0.91 r13725"
   sodipodi:docname="emoji_u263b.svg"><metadata
     id="metadata25"><rdf:RDF><cc:Work
         rdf:about=""><dc:format>image/svg+xml</dc:format><dc:type
           rdf:resource="http://purl.org/dc/dcmitype/StillImage" /><dc:title></dc:title></cc:Work></rdf:RDF></metadata><defs
     id="defs23" /><sodipodi:namedview
     pagecolor="#ffffff"
     bordercolor="#666666"
     borderopacity="1"
     objecttolerance="10"
     gridtolerance="10"
     guidetolerance="10"
     inkscape:pageopacity="0"
     inkscape:pageshadow="2"
     inkscape:window-width="1438"
     inkscape:window-height="880"
     id="namedview21"
     showgrid="false"
     inkscape:zoom="1.84375"
     inkscape:cx="-19.525424"
     inkscape:cy="64"
     inkscape:window-x="0"
     inkscape:window-y="18"
     inkscape:window-maximized="0"
     inkscape:current-layer="レイヤー_1" /><g
     id="g4189"><g
       id="g7"
       style="fill:#584539;fill-opacity:1"><g
         id="g9"
         style="fill:#584539;fill-opacity:1"><path
           style="fill:#584539;fill-opacity:1"
           inkscape:connector-curvature="0"
           id="path11"
           d="m 119.17,98.95 c 0,12.09 -24.69,21.9 -55.16,21.9 -30.47,0 -55.17,-9.81 -55.17,-21.9 0,-12.1 1.27,-73.24 55.17,-73.24 53.88,0.01 55.16,61.14 55.16,73.24" /></g></g><g
       id="g4185"><path
         d="m 46.39,71.71 c 4.17,0 7.57,-4.05 7.57,-9.05 0,-5.01 -3.4,-9.07 -7.57,-9.07 -4.17,0 -7.57,4.05 -7.57,9.07 0.01,5 3.4,9.05 7.57,9.05 z"
         id="path15"
         inkscape:connector-curvature="0"
         style="fill:#ffffff" /><path
         d="m 81.6,71.71 c 4.18,0 7.56,-4.05 7.56,-9.05 0,-5.01 -3.38,-9.07 -7.56,-9.07 -4.17,0 -7.57,4.05 -7.57,9.07 0,5 3.4,9.05 7.57,9.05 z"
         id="path17"
         inkscape:connector-curvature="0"
         style="fill:#ffffff" /></g><path
       d="m 91.85,82.39 c -1.1,-0.66 -2.45,-0.43 -3.47,0.27 -1.32,0.91 -3.13,2.87 -4.6,4.27 -4.59,4.38 -11.83,7.55 -19.79,7.55 l 0,0 c -7.94,0 -15.18,-3.17 -19.78,-7.55 -1.47,-1.4 -3.28,-3.36 -4.6,-4.27 -1.03,-0.71 -2.37,-0.93 -3.48,-0.27 -1.6,0.96 -1.05,3.18 -0.59,4.72 1.05,3.5 5.07,8.83 10.94,12.73 5.38,3.57 13.38,4.83 17.5,4.83 l 0,0 c 4.13,0 12.13,-1.27 17.51,-4.83 5.87,-3.9 9.89,-9.23 10.94,-12.73 0.48,-1.54 1.02,-3.77 -0.58,-4.72 z"
       id="path19"
       inkscape:connector-curvature="0"
       style="fill:#ffffff" /></g></svg>